HIERARCHY
ROOT Hips
{
  OFFSET 5.72205e-005 65.662 3.42586
  CHANNELS 6 Xposition Yposition Zposition Zrotation Xrotation Yrotation
  JOINT Chest
  {
    OFFSET 0 8.7983 -4.7612
    CHANNELS 3 Zrotation Xrotation Yrotation
    JOINT Chest2
    {
      OFFSET 0 8.0291 0.4195
      CHANNELS 3 Zrotation Xrotation Yrotation
      JOINT Chest3
      {
        OFFSET 0 9.9351 -2.2114
        CHANNELS 3 Zrotation Xrotation Yrotation
        JOINT Neck
        {
          OFFSET 0 22.3885 -0.4656
          CHANNELS 3 Zrotation Xrotation Yrotation
          JOINT Head
          {
            OFFSET -0.0001 12.643 3.4389
            CHANNELS 3 Zrotation Xrotation Yrotation
            End Site
            {
              OFFSET 0.0001 17.6655 0.5274
            }
          }
        }
        JOINT LeftCollar
        {
          OFFSET 2.2603 21.606 7.4023
          CHANNELS 3 Zrotation Xrotation Yrotation
          JOINT LeftShoulder
          {
            OFFSET 13.5163 -1.1332 -5.0146
            CHANNELS 3 Zrotation Xrotation Yrotation
            JOINT LeftElbow
            {
              OFFSET -0.0995 -28.05 -0.2431
              CHANNELS 3 Zrotation Xrotation Yrotation
              JOINT LeftWrist
              {
                OFFSET 0.0679 -23.3996 -0.1402
                CHANNELS 3 Zrotation Xrotation Yrotation
                JOINT LeftFinger1
                {
                  OFFSET 0.7932 -9.069 2.5189
                  CHANNELS 3 Zrotation Xrotation Yrotation
                  JOINT LeftFinger11
                  {
                    OFFSET -0.8272 -3.3923 0.5977
                    CHANNELS 3 Zrotation Xrotation Yrotation
                    JOINT LeftFinger12
                    {
                      OFFSET -0.5649 -2.3158 0.4082
                      CHANNELS 3 Zrotation Xrotation Yrotation
                      End Site
                      {
                        OFFSET -0.4919 -1.6479 0.2673
                      }
                    }
                  }
                }
                JOINT LeftFinger2
                {
                  OFFSET 0.9159 -9.2044 0.2193
                  CHANNELS 3 Zrotation Xrotation Yrotation
                  JOINT LeftFinger21
                  {
                    OFFSET 0.0117 -4.1944 -0.0248
                    CHANNELS 3 Zrotation Xrotation Yrotation
                    JOINT LeftFinger22
                    {
                      OFFSET 0.0071 -2.3249 -0.0142
                      CHANNELS 3 Zrotation Xrotation Yrotation
                      End Site
                      {
                        OFFSET -0.1475 -2.0882 0.0028
                      }
                    }
                  }
                }
                JOINT LeftFinger3
                {
                  OFFSET 0.6113 -8.7231 -2.0637
                  CHANNELS 3 Zrotation Xrotation Yrotation
                  JOINT LeftFinger31
                  {
                    OFFSET -0.1927 -3.8059 -0.2383
                    CHANNELS 3 Zrotation Xrotation Yrotation
                    JOINT LeftFinger32
                    {
                      OFFSET -0.1091 -2.1688 -0.1362
                      CHANNELS 3 Zrotation Xrotation Yrotation
                      End Site
                      {
                        OFFSET -0.2358 -1.9176 -0.0906
                      }
                    }
                  }
                }
                JOINT LeftFinger4
                {
                  OFFSET -0.6151 -8.0947 -3.5641
                  CHANNELS 3 Zrotation Xrotation Yrotation
                  JOINT LeftFinger41
                  {
                    OFFSET -0.4882 -2.341 -0.6462
                    CHANNELS 3 Zrotation Xrotation Yrotation
                    JOINT LeftFinger42
                    {
                      OFFSET -0.3575 -1.7167 -0.4742
                      CHANNELS 3 Zrotation Xrotation Yrotation
                      End Site
                      {
                        OFFSET -0.4187 -1.5237 -0.3496
                      }
                    }
                  }
                }
                JOINT LeftFinger0
                {
                  OFFSET -1.42 -1.8761 1.4223
                  CHANNELS 3 Zrotation Xrotation Yrotation
                  JOINT LeftFinger01
                  {
                    OFFSET -1.1471 -3.4929 2.6334
                    CHANNELS 3 Zrotation Xrotation Yrotation
                    JOINT LeftFinger02
                    {
                      OFFSET -0.823 -2.3 1.6571
                      CHANNELS 3 Zrotation Xrotation Yrotation
                      End Site
                      {
                        OFFSET -0.5822 -1.6914 1.1582
                      }
                    }
                  }
                }
              }
            }
          }
        }
        JOINT RightCollar
        {
          OFFSET -2.2603 21.606 7.4023
          CHANNELS 3 Zrotation Xrotation Yrotation
          JOINT RightShoulder
          {
            OFFSET -13.5187 -1.1334 -5.0155
            CHANNELS 3 Zrotation Xrotation Yrotation
            JOINT RightElbow
            {
              OFFSET 0.0994 -28.0499 -0.2431
              CHANNELS 3 Zrotation Xrotation Yrotation
              JOINT RightWrist
              {
                OFFSET -0.0679 -23.3996 -0.1402
                CHANNELS 3 Zrotation Xrotation Yrotation
                JOINT RightFinger1
                {
                  OFFSET -0.7932 -9.0691 2.5189
                  CHANNELS 3 Zrotation Xrotation Yrotation
                  JOINT RightFinger11
                  {
                    OFFSET 0.8272 -3.3923 0.5977
                    CHANNELS 3 Zrotation Xrotation Yrotation
                    JOINT RightFinger12
                    {
                      OFFSET 0.565 -2.3158 0.4082
                      CHANNELS 3 Zrotation Xrotation Yrotation
                      End Site
                      {
                        OFFSET 0.4919 -1.6479 0.2673
                      }
                    }
                  }
                }
                JOINT RightFinger2
                {
                  OFFSET -0.916 -9.2044 0.2193
                  CHANNELS 3 Zrotation Xrotation Yrotation
                  JOINT RightFinger21
                  {
                    OFFSET -0.0117 -4.1944 -0.0248
                    CHANNELS 3 Zrotation Xrotation Yrotation
                    JOINT RightFinger22
                    {
                      OFFSET -0.0071 -2.3249 -0.0142
                      CHANNELS 3 Zrotation Xrotation Yrotation
                      End Site
                      {
                        OFFSET 0.1475 -2.0882 0.0028
                      }
                    }
                  }
                }
                JOINT RightFinger3
                {
                  OFFSET -0.6113 -8.7231 -2.0637
                  CHANNELS 3 Zrotation Xrotation Yrotation
                  JOINT RightFinger31
                  {
                    OFFSET 0.1927 -3.8059 -0.2383
                    CHANNELS 3 Zrotation Xrotation Yrotation
                    JOINT RightFinger32
                    {
                      OFFSET 0.1091 -2.1688 -0.1362
                      CHANNELS 3 Zrotation Xrotation Yrotation
                      End Site
                      {
                        OFFSET 0.2358 -1.9176 -0.0906
                      }
                    }
                  }
                }
                JOINT RightFinger4
                {
                  OFFSET 0.6151 -8.0947 -3.564
                  CHANNELS 3 Zrotation Xrotation Yrotation
                  JOINT RightFinger41
                  {
                    OFFSET 0.4882 -2.341 -0.6462
                    CHANNELS 3 Zrotation Xrotation Yrotation
                    JOINT RightFinger42
                    {
                      OFFSET 0.3574 -1.7166 -0.4742
                      CHANNELS 3 Zrotation Xrotation Yrotation
                      End Site
                      {
                        OFFSET 0.4187 -1.5237 -0.3496
                      }
                    }
                  }
                }
                JOINT RightFinger0
                {
                  OFFSET 1.4199 -1.8761 1.4221
                  CHANNELS 3 Zrotation Xrotation Yrotation
                  JOINT RightFinger01
                  {
                    OFFSET 1.1472 -3.4929 2.6336
                    CHANNELS 3 Zrotation Xrotation Yrotation
                    JOINT RightFinger02
                    {
                      OFFSET 0.8229 -2.3 1.6571
                      CHANNELS 3 Zrotation Xrotation Yrotation
                      End Site
                      {
                        OFFSET 0.5822 -1.6914 1.1582
                      }
                    }
                  }
                }
              }
            }
          }
        }
      }
    }
  }
  JOINT RightHip
  {
    OFFSET -9.412 3.9771 -0.7758
    CHANNELS 3 Zrotation Xrotation Yrotation
    JOINT RightKnee
    {
      OFFSET -0.7531 -40.938 0
      CHANNELS 3 Zrotation Xrotation Yrotation
      JOINT RightAnkle
      {
        OFFSET 0 -40.1986 0
        CHANNELS 3 Zrotation Xrotation Yrotation
        JOINT RightToe
        {
          OFFSET 0 -4.4182 9.239
          CHANNELS 3 Zrotation Xrotation Yrotation
          End Site
          {
            OFFSET 0 0 6.1981
          }
        }
      }
    }
  }
  JOINT LeftHip
  {
    OFFSET 9.4119 3.9773 -0.7758
    CHANNELS 3 Zrotation Xrotation Yrotation
    JOINT LeftKnee
    {
      OFFSET 0.7532 -40.9383 0
      CHANNELS 3 Zrotation Xrotation Yrotation
      JOINT LeftAnkle
      {
        OFFSET 0 -40.1986 0
        CHANNELS 3 Zrotation Xrotation Yrotation
        JOINT LeftToe
        {
          OFFSET 0 -4.4182 9.239
          CHANNELS 3 Zrotation Xrotation Yrotation
          End Site
          {
            OFFSET 0 0 6.1981
          }
        }
      }
    }
  }
}
MOTION
Frames:	4
Frame Time:	0.0333333
5.72205e-005 65.662 3.42586 0 0 -0 0 0 -0 0 0 -0 0 0 -0 0 0 -0 0 0 -0 0 0 -12.5014 88.1196 14.2451 10.6914 -0.00160068 -0.00239207 0.000740045 -8.4365e-005 7.00714e-005 -9.52055e-007 9.93923e-017 -1.98785e-016 -1.59028e-015 9.93923e-017 -5.96354e-016 -1.59028e-015 -9.93923e-017 -5.96354e-016 -1.59028e-015 9.93923e-017 -1.98785e-016 -1.59028e-015 -0.0128176 0.00232552 8.52707e-005 9.93923e-017 5.96354e-016 -0 9.93923e-017 -1.98785e-016 -1.59028e-015 -0.0160551 0.00299681 0.000857156 -2.48481e-016 0 3.18055e-015 9.93923e-017 -1.98785e-016 -1.59028e-015 -0.0125865 0.0031206 0.00282719 0 1.98785e-016 -0 9.93923e-017 -1.98785e-016 -1.59028e-015 9.93923e-017 -5.96354e-016 -1.59028e-015 -9.93923e-017 -5.96354e-016 -1.59028e-015 -0.865644 0.16582 7.03859 -88.0329 10.2057 -10.5567 0.0015593 -0.00248883 -0.000788628 7.87605e-005 4.10553e-005 1.24965e-005 -3.97569e-016 -7.95139e-016 3.18055e-015 -1.98785e-016 -3.97569e-016 3.18055e-015 -1.98785e-016 0 3.18055e-015 -3.97569e-016 -7.95139e-016 3.18055e-015 0.0129473 0.00231697 -8.70038e-005 9.93923e-017 -7.95139e-016 1.59028e-015 -3.97569e-016 -7.95139e-016 3.18055e-015 0.0163314 0.00303369 -0.000872333 3.97569e-016 7.95139e-016 -3.18055e-015 -3.97569e-016 -7.95139e-016 3.18055e-015 0.0145763 0.00367772 -0.00326275 9.93923e-017 -3.97569e-016 -0 -3.97569e-016 -7.95139e-016 3.18055e-015 -1.98785e-016 -3.97569e-016 3.18055e-015 -1.98785e-016 0 3.18055e-015 3.42482 1.32465 -0.0626183 0.000117508 0.717283 0.000978199 -3.4257 -2.04197 -0.0604716 6.47761e-025 0 -0 -3.42483 1.34017 0.0627307 -0.000193936 0.682302 -0.0013703 3.42574 -2.02253 0.0595886 -8.45714e-024 0 -7.40531e-025 
1.60884 38.1721 6.56951 -7.06328 -6.61741 132.924 -0.0360669 -1.92538 -0.548061 -0.0906473 -3.85032 -1.09822 -0.0906466 -3.85033 -1.09823 7.34411 26.3115 -4.3545 -3.97379e-006 -0.567212 -5.04443e-006 -17.7592 -7.89717 -10.9844 53.7781 -37.0365 13.5512 -31.3003 5.51789 -37.514 -24.1895 -1.41836 -2.67557 2.38542e-015 3.18055e-015 6.36111e-015 -1.98785e-015 6.16232e-015 3.18055e-015 3.97569e-016 -2.78299e-015 -0 2.38542e-015 3.18055e-015 6.36111e-015 -0.0127705 0.00232294 7.64068e-005 1.59028e-015 5.36719e-015 -6.36111e-015 2.38542e-015 3.18055e-015 6.36111e-015 -0.016073 0.00300107 0.000848904 3.57812e-015 9.93923e-016 6.36111e-015 2.38542e-015 3.18055e-015 6.36111e-015 -0.0125699 0.00311921 0.00282024 -3.97569e-016 1.59028e-015 -0 2.38542e-015 3.18055e-015 6.36111e-015 -1.98785e-015 6.16232e-015 3.18055e-015 3.97569e-016 -2.78299e-015 -0 -7.25296 -8.95253 -5.68192 -16.3528 -55.8092 23.1932 54.5459 -25.8182 6.31372 36.2682 -9.33956 -8.02369 -6.36111e-015 0 -1.59028e-015 3.18055e-015 -6.36111e-015 1.59028e-015 -3.18055e-015 -1.27222e-014 -1.59028e-015 -6.36111e-015 0 -1.59028e-015 0.0129755 0.00231749 -8.736e-005 -3.18055e-015 0 -0 -6.36111e-015 0 -1.59028e-015 0.0163255 0.00303355 -0.000874675 -3.18055e-015 6.36111e-015 -1.59028e-015 -6.36111e-015 0 -1.59028e-015 0.0145758 0.00366387 -0.00327413 3.18055e-015 -3.18055e-015 1.59028e-015 -6.36111e-015 0 -1.59028e-015 3.18055e-015 -6.36111e-015 1.59028e-015 -3.18055e-015 -1.27222e-014 -1.59028e-015 -2.21163 -19.6114 3.53154 4.68117 20.1804 2.36075 1.01807 -12.288 -9.00866 -2.12974e-007 -2.43209e-007 5.30485e-009 2.69646 -17.9713 -3.70945 -3.99034 16.6198 -2.60251 -1.96712 -10.4853 9.13904 5.03982e-007 3.44549e-007 -2.44991e-006 
-0.408287 25.8555 10.0762 3.24696 -13.4406 -166.284 -0.0774789 -2.75858 -0.740326 -0.191016 -5.51595 -1.48699 -0.191016 -5.51593 -1.48698 12.3231 38.2205 -7.24206 -8.6045e-007 -1.68807 3.88644e-007 -25.6604 -11.3941 -10.4146 47.6232 -60.7089 21.5531 -44.1565 7.40805 -59.8448 -35.024 -2.41891 -3.14761 1.41656e-007 5.20055e-008 1.59455e-007 -3.18055e-015 -1.59028e-015 3.18055e-015 -9.54166e-015 -3.18055e-015 3.18055e-015 1.41656e-007 5.20055e-008 1.59455e-007 -0.0127952 0.00232123 8.42528e-005 9.54711e-007 -3.29351e-006 7.83553e-006 1.41656e-007 5.20055e-008 1.59455e-007 -0.0160061 0.00298533 0.000859505 9.54166e-015 7.95139e-016 3.18055e-015 1.41656e-007 5.20055e-008 1.59455e-007 -0.0125739 0.00311821 0.00282814 -3.18055e-015 -7.95139e-015 -0 1.41656e-007 5.20055e-008 1.59455e-007 -3.18055e-015 -1.59028e-015 3.18055e-015 -9.54166e-015 -3.18055e-015 3.18055e-015 -11.4298 -12.6212 -11.3052 -47.7449 -81.7382 -23.878 77.4595 -38.7086 7.07592 51.5981 -13.9189 -12.5765 3.18055e-015 7.95139e-016 3.18055e-015 2.20695e-032 1.59028e-015 -7.95139e-016 -3.87544e-006 -1.87675e-005 1.82804e-006 3.18055e-015 7.95139e-016 3.18055e-015 0.0129509 0.00231013 -8.27622e-005 6.36111e-015 -1.59028e-015 -3.18055e-015 3.18055e-015 7.95139e-016 3.18055e-015 0.0163484 0.00303939 -0.000869238 9.54166e-015 2.38542e-015 2.38542e-015 3.18055e-015 7.95139e-016 3.18055e-015 0.0145686 0.00366281 -0.00326337 6.36111e-015 0 -0 3.18055e-015 7.95139e-016 3.18055e-015 2.20695e-032 1.59028e-015 -7.95139e-016 -3.87544e-006 -1.87675e-005 1.82804e-006 -4.10422 -28.6281 5.23462 6.49249 28.7906 3.50387 1.87556 -16.6418 -13.055 1.26912e-006 -2.4188e-007 -8.68084e-007 4.79065 -26.3183 -5.47547 -5.4863 23.7886 -3.84134 -3.45875 -14.1315 13.1657 -8.51325e-007 2.19249e-008 1.93781e-008 
-0.0193878 28.6029 8.94877 -8.56694e-015 -12.4585 180 -0.0638912 -2.48555 -0.703664 -0.158588 -4.97011 -1.4121 -0.158588 -4.97011 -1.4121 11.1493 36.0171 -6.6115 2.73608e-006 -3.36385 2.97701e-006 -24.0135 -10.5006 -10.8446 47.9754 -55.323 18.7904 -41.4211 7.02918 -54.4064 -32.6221 -2.1573 -3.08734 8.64134e-006 -1.65084e-006 3.01002e-006 4.77083e-015 7.15625e-015 -9.54166e-015 -3.18055e-015 -2.38542e-015 -0 8.64134e-006 -1.65084e-006 3.01002e-006 -0.0128127 0.00231448 8.01058e-005 -4.77083e-015 -2.38542e-015 -0 8.64134e-006 -1.65084e-006 3.01002e-006 -0.0160402 0.0029936 0.000847013 1.59028e-015 1.03368e-014 -0 8.64134e-006 -1.65084e-006 3.01002e-006 -0.0125032 0.00309634 0.00280907 -6.36111e-015 -1.35174e-014 -0 8.64134e-006 -1.65084e-006 3.01002e-006 4.77083e-015 7.15625e-015 -9.54166e-015 -3.18055e-015 -2.38542e-015 -0 -10.3715 -11.6599 -9.2764 -19.4743 -78.2809 7.96467 72.5365 -35.7268 7.03137 46.5803 -13.0698 -11.3436 -1.01701e-006 1.21326e-005 -3.61251e-006 3.18055e-015 1.19271e-015 -7.95139e-016 3.18055e-015 1.39149e-015 -3.97569e-016 -1.01701e-006 1.21326e-005 -3.61251e-006 0.0129536 0.00230332 -8.61681e-005 -0 -7.95139e-016 -0 -1.01701e-006 1.21326e-005 -3.61251e-006 0.0163099 0.00298913 -0.000878487 0 1.11319e-014 -0 -1.01701e-006 1.21326e-005 -3.61251e-006 0.0145398 0.00366439 -0.00326442 -9.54166e-015 -1.19271e-015 3.97569e-016 -1.01701e-006 1.21326e-005 -3.61251e-006 3.18055e-015 1.19271e-015 -7.95139e-016 3.18055e-015 1.39149e-015 -3.97569e-016 -3.90478 -26.045 4.2589 6.13616 26.8904 3.23216 1.75191 -15.6786 -11.5792 -8.40686e-007 -4.07723e-007 4.45412e-007 4.50579 -23.8708 -4.5095 -5.16151 22.2112 -3.56175 -3.1947 -13.3026 11.7063 4.20471e-007 -1.25523e-007 -2.22495e-007 
